<?xml version="1.0" encoding="UTF-8" standalone="no"?>
<svg
   xmlns:dc="http://purl.org/dc/elements/1.1/"
   xmlns:cc="http://creativecommons.org/ns#"
   xmlns:rdf="http://www.w3.org/1999/02/22-rdf-syntax-ns#"
   xmlns:svg="http://www.w3.org/2000/svg"
   xmlns="http://www.w3.org/2000/svg"
   xmlns:sodipodi="http://sodipodi.sourceforge.net/DTD/sodipodi-0.dtd"
   xmlns:inkscape="http://www.inkscape.org/namespaces/inkscape"
   id="svg2"
   viewBox="0 0 422.92 561.83"
   version="1.0"
   inkscape:version="0.48.2 r9819"
   width="100%"
   height="100%"
   sodipodi:docname="WellDoneGoodLogo.svg">
  <defs
     id="defs4645">
    <filter
       id="filter5346"
       inkscape:label="Fancy blur"
       inkscape:menu="Blurs"
       inkscape:menu-tooltip="Smooth colorized contour which allows desaturation and hue rotation"
       color-interpolation-filters="sRGB">
      <feGaussianBlur
         id="feGaussianBlur5348"
         stdDeviation="5"
         result="result1" />
      <feComposite
         id="feComposite5350"
         in2="result1"
         operator="arithmetic"
         k2="2"
         in="result1" />
    </filter>
  </defs>
  <sodipodi:namedview
     pagecolor="#ffffff"
     bordercolor="#666666"
     borderopacity="1"
     objecttolerance="10"
     gridtolerance="10"
     guidetolerance="10"
     inkscape:pageopacity="0"
     inkscape:pageshadow="2"
     inkscape:window-width="1176"
     inkscape:window-height="711"
     id="namedview4643"
     showgrid="false"
     inkscape:zoom="0.59520899"
     inkscape:cx="-178.42223"
     inkscape:cy="388.71971"
     inkscape:window-x="0"
     inkscape:window-y="0"
     inkscape:window-maximized="0"
     inkscape:current-layer="g5340" />
  <g
     id="layer1"
     transform="translate(-141.26 -219.8)"
     inkscape:export-filename="/Users/kmager/Pictures/LogoLarge.png"
     inkscape:export-xdpi="90"
     inkscape:export-ydpi="90">
    <path
       id="path3573"
       d="m418.19 309.92c-19.81 0-60.05 10.54-67.09 37.87-0.11 0.21-0.32 0.97-0.55 2.14-12.74-7.79-27.72-12.32-43.73-12.32-16.72 0-32.26 4.94-45.35 13.36-0.27-1.71-0.6-2.91-0.73-3.18-7.04-27.33-47.28-37.84-67.1-37.85-3.15 0-5.76 0.27-7.67 0.77-10.63 1.48-22.27 5.73-21.42 8.05 7.8-1.33 11.74 0.19 11.62 1.45-0.24 2.36-4.94 2.99-3.43 11.5 2.85-4.13 6.82-5.55 9.94-6.21 3.2 20.09 17.2 55.16 43.4 56.98 2.25 0.16 4.35 0.15 6.33 0.11-6.18 11.72-9.69 25.07-9.69 39.24 0 46.47 37.67 100.32 84.1 100.32 46.42 0 84.14-53.85 84.14-100.32 0-14.16-3.52-27.48-9.7-39.19 1.43-0.01 2.94-0.05 4.5-0.16 26.11-1.81 40.11-36.68 43.37-56.79 2.98 0.73 6.54 2.23 9.15 6.02 1.51-8.51-3.19-9.14-3.43-11.5-0.12-1.26 3.82-2.78 11.62-1.45 0.81-2.2-9.58-6.13-19.72-7.8-1.93-0.68-4.89-1.04-8.56-1.04z"
       stroke-linejoin="round"
       stroke-width="4"
       stroke="#000"
       fill-rule="evenodd"
       fill="#784421" />
    <path
       id="path3177"
       d="m371.42 413.4a9.4428 9.4428 0 1 1 -18.89 0 9.4428 9.4428 0 1 1 18.89 0z"
       transform="matrix(2.9095 0 0 2.9121 -776.76 -788.78)"
       stroke-linejoin="round"
       stroke-linecap="round"
       stroke-width="1.3742"
       stroke="#000"
       fill="#fff" />
    <path
       id="path3179"
       d="m371.42 413.4a9.4428 9.4428 0 1 1 -18.89 0 9.4428 9.4428 0 1 1 18.89 0z"
       transform="matrix(2.9095 0 0 2.9121 -715.9 -788.78)"
       stroke-linejoin="round"
       stroke-linecap="round"
       stroke-width="1.3742"
       stroke="#000"
       fill="#fff" />
    <path
       id="path3181"
       transform="matrix(1.3428 0 0 1.344 -210.97 -155.37)"
       d="m377.08 426.93a6.61 6.61 0 1 1 -13.22 0 6.61 6.61 0 1 1 13.22 0z" />
    <path
       id="path3183"
       transform="matrix(1.3428 0 0 1.344 -170.37 -155.37)"
       d="m377.08 426.93a6.61 6.61 0 1 1 -13.22 0 6.61 6.61 0 1 1 13.22 0z" />
    <path
       id="path3192"
       d="m292.63 467.85c4.48-4.79 23.51-5.83 27.49 0.59 3.98 6.43-5.97 19.75-13.75 19.15-7.74-0.6-17.94-15.27-13.74-19.74z"
       fill-rule="evenodd" />
    <path
       id="path3216"
       d="m242.58 370.21c-2.95-42.72-46.91-52.45-49.03-47.38-2.11 5.08 8.03 62.19 49.03 47.38z"
       stroke-linejoin="round"
       stroke-width="4"
       stroke="#000"
       fill-rule="evenodd"
       fill="#502d16" />
    <path
       id="path3218"
       d="m367.86 370.21c2.95-42.72 46.91-52.45 49.03-47.38 2.11 5.08-8.04 62.19-49.03 47.38z"
       stroke-linejoin="round"
       stroke-width="4"
       stroke="#000"
       fill-rule="evenodd"
       fill="#502d16" />
    <path
       id="path3246"
       d="m384.33 389.24c1.53 6.34 2.35 12.98 2.35 19.78 0 46.47-37.71 100.3-84.14 100.3-33.84 0-62.99-28.61-76.33-62.12 10.33 38.69 42.51 74.97 80.61 74.97 46.43 0 84.14-53.87 84.14-100.34 0-11.56-2.36-22.56-6.59-32.59h-0.04z"
       fill-opacity=".31373" />
    <path
       style="fill:#ffffff;fill-opacity:1;stroke:#000000"
       d="m 166.11812,268.44565 0,11.55057 8.61042,0.63003 0,-3.57018"
       id="path4822"
       inkscape:connector-curvature="0"
       transform="translate(141.26,219.8)" />
    <path
       style="fill:#784421;stroke:#000000;stroke-width:3.99999976;stroke-miterlimit:4;stroke-dasharray:none"
       d="m 308.03363,485.68512 c 14.27485,23.39295 28.5636,-0.84638 28.5614,-0.63003"
       id="path4794"
       inkscape:connector-curvature="0"
       sodipodi:nodetypes="cc" />
    <path
       style="fill:#ffffff;fill-opacity:1;stroke:#000000"
       d="m 307.29113,487.73864 0.21001,12.39061 -10.71052,0.21001 0.21001,-3.36017"
       id="path4820"
       inkscape:connector-curvature="0" />
    <path
       sodipodi:nodetypes="cc"
       inkscape:connector-curvature="0"
       id="path4818"
       d="m 305.70859,486.13062 c -14.27485,23.39295 -28.5636,-0.84638 -28.5614,-0.63003"
       style="fill:#784421;stroke:#000000;stroke-width:3.99999976;stroke-miterlimit:4;stroke-dasharray:none" />
  </g>
  <metadata
     id="metadata4641">
    <rdf:RDF>
      <cc:Work>
        <dc:format>image/svg+xml</dc:format>
        <dc:type
           rdf:resource="http://purl.org/dc/dcmitype/StillImage" />
        <cc:license
           rdf:resource="http://creativecommons.org/licenses/publicdomain/" />
        <dc:publisher>
          <cc:Agent
             rdf:about="http://openclipart.org/">
            <dc:title>Openclipart</dc:title>
          </cc:Agent>
        </dc:publisher>
        <dc:title></dc:title>
        <dc:date>2008-07-06T13:44:34</dc:date>
        <dc:description>animal, animal, cartoon, cartoon, clip art, clipart, colour, colour, funny, funny, how i did it, image, mammal, mammal, media, png, public domain, squirrel, squirrel, svg, </dc:description>
        <dc:source>http://openclipart.org/detail/17595/cartoon-squirrel-by-lemmling</dc:source>
        <dc:creator>
          <cc:Agent>
            <dc:title>lemmling</dc:title>
          </cc:Agent>
        </dc:creator>
        <dc:subject>
          <rdf:Bag>
            <rdf:li>animal</rdf:li>
            <rdf:li>cartoon</rdf:li>
            <rdf:li>clip art</rdf:li>
            <rdf:li>clipart</rdf:li>
            <rdf:li>colour</rdf:li>
            <rdf:li>funny</rdf:li>
            <rdf:li>how i did it</rdf:li>
            <rdf:li>image</rdf:li>
            <rdf:li>mammal</rdf:li>
            <rdf:li>media</rdf:li>
            <rdf:li>png</rdf:li>
            <rdf:li>public domain</rdf:li>
            <rdf:li>squirrel</rdf:li>
            <rdf:li>svg</rdf:li>
          </rdf:Bag>
        </dc:subject>
      </cc:Work>
      <cc:License
         rdf:about="http://creativecommons.org/licenses/publicdomain/">
        <cc:permits
           rdf:resource="http://creativecommons.org/ns#Reproduction" />
        <cc:permits
           rdf:resource="http://creativecommons.org/ns#Distribution" />
        <cc:permits
           rdf:resource="http://creativecommons.org/ns#DerivativeWorks" />
      </cc:License>
    </rdf:RDF>
  </metadata>
  <g
     inkscape:groupmode="layer"
     id="layer6"
     inkscape:label="Logo Background"
     style="display:inline">
    <text
       xml:space="preserve"
       style="font-size:72px;font-style:normal;font-weight:normal;line-height:125%;letter-spacing:0px;word-spacing:0px;fill:#000000;fill-opacity:1;stroke:none;filter:url(#filter5346);font-family:Sans"
       x="-719.92645"
       y="225.62671"
       id="text5336"
       sodipodi:linespacing="125%"><tspan
         sodipodi:role="line"
         id="tspan5338"
         x="-719.92645"
         y="225.62671"
         style="font-size:144px;font-style:normal;font-variant:normal;font-weight:normal;font-stretch:normal;font-family:'.Savoye LET CC.';-inkscape-font-specification:'.Savoye LET CC.'">Well Done G   d</tspan></text>
  </g>
  <g
     inkscape:label="Logo"
     id="g5340"
     inkscape:groupmode="layer"
     style="display:inline">
    <text
       sodipodi:linespacing="125%"
       id="text5342"
       y="225.62671"
       x="-719.92645"
       style="font-size:72px;font-style:normal;font-weight:normal;line-height:125%;letter-spacing:0px;word-spacing:0px;fill:#ffffff;fill-opacity:1;stroke:none;font-family:Sans"
       xml:space="preserve"
       inkscape:export-filename="/Users/kmager/Pictures/LogoLarge.png"
       inkscape:export-xdpi="90"
       inkscape:export-ydpi="90"><tspan
         style="font-size:144px;font-style:normal;font-variant:normal;font-weight:normal;font-stretch:normal;font-family:'.Savoye LET CC.';-inkscape-font-specification:'.Savoye LET CC.';fill:#ffffff"
         y="225.62671"
         x="-719.92645"
         id="tspan5344"
         sodipodi:role="line">Well Done G   d</tspan></text>
  </g>
</svg>
